<svg xmlns="http://www.w3.org/2000/svg" width="1433.877" height="421" viewBox="0 0 1433.877 421">
  <path id="Union_2" data-name="Union 2" d="M18318.527,23443.016l.371-8.99a217.46,217.46,0,0,0,30.334-.83l.889,8.955c-7.143.709-14.473,1.066-21.891,1.068Q18323.4,23443.219,18318.527,23443.016Zm-58.154-8.949,2.254-8.713a292.857,292.857,0,0,0,29.889,6.129l-1.33,8.9A301.858,301.858,0,0,1,18260.373,23434.066Zm114.865-5.23a187.611,187.611,0,0,0,22.574-6.908l3.172,8.42a195.86,195.86,0,0,1-23.658,7.242Zm-170.264-13.986,3.559-8.266c9.615,4.137,19.229,7.861,28.584,11.072l-2.926,8.514C18224.625,23422.887,18214.8,23419.08,18204.975,23414.85Zm-52.258-26.252,4.467-7.812c9.084,5.189,18.2,10.072,27.1,14.514l-4.012,8.055C18171.215,23398.836,18161.943,23393.869,18152.717,23388.6Zm-49.328-31.211,5.119-7.4c8.578,5.938,17.221,11.65,25.693,16.986l-4.795,7.619C18120.822,23369.188,18112.068,23363.4,18103.389,23357.387Zm-46.709-34.9,5.625-7.023c7.873,6.313,16.021,12.625,24.4,18.861l-5.371,7.219C18072.865,23335.246,18064.635,23328.869,18056.68,23322.49Zm-44.314-37.836,6.043-6.666c7.33,6.648,15.072,13.473,23.188,20.369l-5.832,6.854C18027.574,23298.25,18019.762,23291.367,18012.365,23284.654Zm-529.447-22.34a275.558,275.558,0,0,0,30.412-2.107l1.117,8.932a284.785,284.785,0,0,1-31.406,2.178Zm-58.447,3.982,1.623-8.854a302.549,302.549,0,0,0,30.271,3.988l-.717,8.973A313.183,313.183,0,0,1,17424.471,23266.3Zm545.934-22.057,6.441-6.283c6.555,6.719,13.881,14.014,21.9,21.7l-6.23,6.5C17984.424,23258.391,17977.023,23251.023,17970.4,23244.24Zm-430.922,11.379a278.5,278.5,0,0,0,29.33-8.355l2.93,8.508a287.4,287.4,0,0,1-30.271,8.625Zm-171.611-4.848,3.084-8.455c9.7,3.535,19.51,6.648,29.17,9.248l-2.342,8.689C17387.881,23257.59,17377.814,23254.395,17367.871,23250.771Zm226.039-12.98q14.906-5.842,28.684-11.531l3.418,8.324q-13.866,5.692-28.818,11.586Zm-279.467-11.055,4.248-7.937c9.107,4.879,18.373,9.42,27.535,13.5l-3.66,8.225C17333.205,23236.355,17323.744,23231.713,17314.443,23226.736Zm609.734-11.344,4.1-8.008c8.6,4.4,17.6,9.338,26.76,14.662l-4.525,7.777C17941.492,23224.582,17932.637,23219.723,17924.178,23215.393Zm-276.662.529c9.914-4.129,19.445-8.1,28.693-11.85l3.383,8.338c-9.225,3.742-18.732,7.7-28.611,11.82Zm-382.848-19.951,5.178-7.365c8.432,5.93,17.063,11.607,25.658,16.879l-4.7,7.672C17282.043,23207.791,17273.252,23202,17264.668,23195.971Zm606.822-2.947,2.795-8.555c9.455,3.09,19.326,6.861,29.34,11.221l-3.594,8.248C17890.281,23199.7,17880.674,23196.023,17871.49,23193.023Zm-170.023,1.172c10.832-4.037,20.518-7.332,29.613-10.074l2.6,8.615c-8.908,2.688-18.422,5.924-29.07,9.895Zm56.146-16.887a229.648,229.648,0,0,1,31.277-4.371l.611,8.979a221.318,221.318,0,0,0-30.064,4.207Zm58.271,4.561.588-8.979a218.392,218.392,0,0,1,31.313,4.395l-1.877,8.8A210.5,210.5,0,0,0,17815.885,23181.869Zm-597.107-22.135,5.953-6.748c7.66,6.76,15.609,13.373,23.629,19.656l-5.549,7.084C17234.656,23173.338,17226.566,23166.607,17218.777,23159.734Zm-28.354-26.947q-6.771-6.943-13.639-13.1l6.014-6.7q7.078,6.363,14.068,13.514,4,4.113,8.26,8.268l-6.295,6.436Q17194.508,23136.979,17190.424,23132.787Zm-59.736-46.537,4.484-7.8a279.308,279.308,0,0,1,26.375,17.215l-5.342,7.244A269.978,269.978,0,0,0,17130.688,23086.25Zm-52.027-23.482,2.971-8.5c10.367,3.619,19.9,7.432,29.16,11.656l-3.736,8.189C17098.053,23070.01,17088.768,23066.3,17078.66,23062.768Zm-55.34-15.885,2.193-8.73c9.727,2.441,19.793,5,30.113,7.941l-2.461,8.654C17042.936,23051.836,17032.957,23049.3,17023.32,23046.883Zm-56.213-16.279,3.271-8.385a283.938,283.938,0,0,0,29.064,9.254l-2.354,8.686A293.714,293.714,0,0,1,16967.107,23030.6Z" transform="translate(-16967.107 -23022.219)" fill="#ffeda3"/>
</svg>
