<svg xmlns="http://www.w3.org/2000/svg" width="131.281" height="165.326" viewBox="0 0 131.281 165.326">
  <path id="Union_3" data-name="Union 3" d="M5261.251,23184.705c-8.2-2.828-13.447-14.547-18.079-24.887a79.658,79.658,0,0,0-4.69-9.484,42.285,42.285,0,0,1-16.135-.256c-.914,2.607-5.871,27.336-19.039,30.2-3.206.691-8.693.424-13.738-5.109-7.413-8.123-1.827-18.91,2.246-26.783,1.152-2.223,4.225-8.508,4.213-8.746-5.365-6.609-7.437-15.512-3.707-28.867-4.085,4.609-15.53,19.982-26.7,8.926a11.49,11.49,0,0,1-3.288-11.02c4.9-19.318,32.055-36.426,41.581-41.941a30.907,30.907,0,0,1-7.337-17.5c-.018-.221-.023-.441-.029-.668-9.88-.717-22.053-12.209-8.3-25.086,4.422-4.137,15.286-.744,19.825,2.572,5.045-3.381,11.94-5.48,21.064-5.148a43.349,43.349,0,0,1,19.8,5.871c2.9-4.145,8.746-8.893,14.058-5.768,18.329,10.789,8.356,26.2-1.734,27.291a33.218,33.218,0,0,1-.878,6.65,31.408,31.408,0,0,1-6.058,12.842,193.808,193.808,0,0,0,12.039,17.252c5.156,6.053,38.968,14.42,22.373,29.455-3.229,2.922-10.282,7.139-29.059-8.758,1.169,7.8,3.986,22.828,1.716,32.416.605,1.438,3.2,4.818,5.126,7.338,6.424,8.391,14.425,18.836,12.353,28.291-.931,4.254-3.747,7.646-8.367,10.084a11.955,11.955,0,0,1-5.615,1.455A11.073,11.073,0,0,1,5261.251,23184.705Zm-15.192-37.461c1.414,2.414,2.9,5.748,4.486,9.275,3.363,7.512,8.577,18.521,13.336,20.557,3.293,1.4,7.372-4.131,7.518-4.811,1.269-5.791-6.453-15.543-11.288-21.855-4.754-6.209-7.7-10.119-6.284-13.611,4.754-11.7-1.874-36.279,1.5-38.391,2.625-1.648,7.419,2.361,12.429,6.365,4.94,3.957,10.1,7.914,13.587,6.436.826-.355,5.563-3.957,4.888-6.553-.372-1.443-22.553-13.324-24.078-14.541-4.51-3.6-10-13.127-12.563-17.764-4.219,3.182-10.049,5.713-18.137,6.621a31.32,31.32,0,0,1-22.838-7.529c-10.637,6.75-45.3,30.025-37.595,42.447,3.875,6.256,11.7-1.729,18.591-9.705,5.266-6.092,9.991-12.186,12.027-11.945,1.763.2,2.607,1.029,1.344,4.549-.111.314-.268.717-.466,1.223a76.542,76.542,0,0,0-4.754,16.9c-1.2,8.57-.087,14.965,3.7,19.416,1.955,2.3,2.531,5.627,1.3,9.484a56.885,56.885,0,0,1-3.776,8.281c-4.143,8-6.814,13.947-3.457,17.631a10.544,10.544,0,0,0,2.362,1.967c12.854,7.82,19.155-28.326,19.155-28.326s13.575,2.293,20.89-.367a5.437,5.437,0,0,1,1.866-.344C5243.094,23142.658,5245.289,23145.932,5246.059,23147.244Zm-14.605-73.24c25.265-.193,37.479-44.09-2.315-46.678C5187.766,23028.461,5201.632,23074.23,5231.453,23074ZM5191,23027.93c-6.954,6.379.506,13.367,6.162,14.24a26.5,26.5,0,0,1,5.58-11.354,18.723,18.723,0,0,0-9.792-3.34A3.083,3.083,0,0,0,5191,23027.93Zm62.115,1.875a22.788,22.788,0,0,1,7.459,11.9c5.278-1.414,9.642-10.328.623-15.518a4.208,4.208,0,0,0-2.081-.506C5257.257,23025.68,5254.89,23026.7,5253.117,23029.8Zm-43.257,79.8c0-12.512,5.743-18.709,15.4-21.473,12.249-3.5,18.5,5.563,18.5,18.068s-3.812,27.971-16.63,27.971C5220.211,23134.17,5209.86,23122.113,5209.86,23109.6Zm11.94-45.189c-1.565-.635-1.135-3.73-.053-3.76,1.676.264,7.291,2.4,6.581-3-2.031-.635-3.741-2.141-3.741-4.02,0-2.578,2.461-3.492,5.318-3.492s6.476.279,6.476,2.857a5.418,5.418,0,0,1-4.137,4.748c.052.709.157,1.361.187,1.506.623,3.707,6.54,2.189,7.36.758,1.2.08,1.56,2.158.855,3.061a7.078,7.078,0,0,1-8.478,1.238,16.7,16.7,0,0,1-1.484-.871,6.38,6.38,0,0,1-4.747,1.832A10.57,10.57,0,0,1,5221.8,23064.414Zm-9.938-18.277c0-2.135,1.838-4.625,3.974-4.625s4.48,2.49,4.48,4.625a4.556,4.556,0,0,1-.891,2.719c-.7.855-2.211.971-3.41.971A3.976,3.976,0,0,1,5211.862,23046.137Zm25.37,2.963c-1.047-1.537-.151-2.449.861-3.281.623-.514,1.059-1.043,1.687-1.561-.843-.738-1.757-1.734-1.949-1.9a2.054,2.054,0,0,1-.7-2.857,1.986,1.986,0,0,1,2.974-.5,13,13,0,0,1,2.915,2.438c1.094-.914,3.834-3.834,5.354-2.211a2.544,2.544,0,0,1,.25,2.9c-.151.232-.279.418-2.52,2.309.425.426.878.891,1.373,1.391.919.938,1.5,2.078.442,2.852-1.565,1.141-4.073-1.449-4.649-2.029-.675.553-2.24,1.994-3.067,2.676a2.762,2.762,0,0,1-1.552.5A1.637,1.637,0,0,1,5237.231,23049.1Z" transform="translate(-5162.002 -23020.002)" fill="#fffcf0"/>
</svg>
